# xmcd
# Copyright (C) 1995-1998 Ti Kan
#
# Track frame offsets:
#       150
#       25468
#       48143
#       66349
#       87835
#       105804
#       127935
#       143136
#       161021
#       179327
#       206350
#       227601
#
# Disc length: 3318 seconds
#
# Revision: 0
# Processed by: cddbd v1.5.2PL0 Copyright (c) Steve Scherf et al.
# Submitted via: CD-Import v1.0
#
DISCID=940cf40c
DTITLE=Eagle*seagull - The Year Of How To Book
DYEAR=10
DGENRE=
TTITLE0=You're The Reason Why I'm Afraid To Die
TTITLE1=I'm Sorry, But I'm Beginning To Hate Your Face
TTITLE2=You Can't Call Yourself A Secret
TTITLE3=I Don't Know If People Have Hated Me But I Have Hated People
TTITLE4=I Don't Know If This Is Ignorance Or Transcendence
TTITLE5=The Year Of How To Book
TTITLE6=The Boy With A Serpent In His Heart
TTITLE7=Twenty Thousand Light Years
TTITLE8=We Move Like Turtles Might
TTITLE9=I Don't Believe In Wars But I Do Believe In Uniforms
TTITLE10=Coming Of The Plague
TTITLE11=Thanks To All
EXTD=
EXTT0=
EXTT1=
EXTT2=
EXTT3=
EXTT4=
EXTT5=
EXTT6=
EXTT7=
EXTT8=
EXTT9=
EXTT10=
EXTT11=
PLAYORDER=
